<svg width="979" height="248" viewBox="0 0 979 248" fill="none" xmlns="http://www.w3.org/2000/svg">
<path d="M460.136 164.096H423.272V157.28L432.296 150.176V108.512L409.544 164.096H399.464L375.944 107.936V152.48L386.984 156.416L383.144 164.096H356.84V157.28L365.864 150.176V100.352L354.92 96.224L358.76 88.544H389.48L410.12 137.888L430.376 88.544H462.056V95.36L452.936 102.464V153.728L463.976 156.416L460.136 164.096ZM527.795 164H503.795V155.648L492.947 164.192C491.667 164.704 490.067 164.96 488.147 164.96C481.619 164.96 476.883 163.392 473.939 160.256C471.059 157.056 469.619 153.216 469.619 148.736C469.619 146.176 470.355 143.68 471.827 141.248C473.299 138.752 475.443 136.448 478.259 134.336H503.795C503.603 131.52 502.643 129.408 500.915 128C499.187 126.528 497.011 125.792 494.387 125.792C489.971 125.792 483.507 127.136 474.995 129.824L472.115 123.296L485.267 112.736C488.787 111.52 493.011 110.912 497.939 110.912C505.875 110.912 512.051 112.672 516.467 116.192C520.883 119.648 523.091 124.736 523.091 131.456V152.96L531.635 156.32L527.795 164ZM494.003 149.12C496.819 149.12 500.083 148.032 503.795 145.856V142.112H489.203C488.883 142.688 488.659 143.2 488.531 143.648C488.403 144.032 488.339 144.544 488.339 145.184C488.339 146.4 488.819 147.36 489.779 148.064C490.803 148.768 492.243 149.12 494.099 149.12H494.003ZM571.034 164.192C568.41 164.704 565.338 164.96 561.818 164.96C555.162 164.96 550.298 163.584 547.226 160.832C544.154 158.016 542.618 153.696 542.618 147.872V122.528H532.25V116.672L554.33 93.536H561.818V114.752H579.098V122.528H561.818V146.144C561.818 150.048 564.314 152 569.306 152C570.586 152 571.834 151.872 573.05 151.616C574.33 151.296 575.93 150.752 577.85 149.984L580.73 156.512L571.034 164.192ZM615.397 110.912C618.597 110.912 622.341 111.296 626.629 112.064C630.917 112.768 634.021 113.568 635.941 114.464V134.048H628.453C626.085 130.784 623.397 128.256 620.389 126.464C617.445 124.672 614.341 123.776 611.077 123.776C609.157 123.776 607.621 124.768 606.469 126.752C605.317 128.672 604.741 131.424 604.741 135.008C604.741 139.616 605.701 143.456 607.621 146.528C609.605 149.536 612.421 151.04 616.069 151.04C620.421 151.04 626.885 149.376 635.461 146.048L638.341 152.576L625.189 163.136C621.093 164.352 616.197 164.96 610.501 164.96C605.509 164.96 601.029 163.872 597.061 161.696C593.157 159.456 590.085 156.416 587.845 152.576C585.669 148.672 584.581 144.352 584.581 139.616C584.581 134.496 586.181 129.728 589.381 125.312C592.581 120.896 596.581 117.408 601.381 114.848C606.245 112.224 610.917 110.912 615.397 110.912ZM709.124 163.904H685.124V134.24C685.124 131.488 684.708 129.536 683.876 128.384C683.108 127.232 681.732 126.656 679.748 126.656C676.996 126.656 674.308 127.328 671.684 128.672V153.632L680.324 156.32L676.484 164H643.94V157.184L652.484 149.696V101.12L643.94 95.552V88.736L664.196 80.192H671.684V119.168L680.996 111.68C682.724 111.168 684.804 110.912 687.236 110.912C692.484 110.912 696.644 112.256 699.716 114.944C702.788 117.568 704.324 121.152 704.324 125.696V153.632L712.964 156.224L709.124 163.904ZM830.905 164H794.041V157.184L803.065 149.312V130.976H773.785V153.44L784.825 156.32L780.985 164H744.121V157.184L753.145 149.312V99.2L742.201 96.32L746.041 88.64H782.905V95.456L773.785 103.424V121.952H803.065V99.2L792.121 96.32L795.961 88.64H832.825V95.456L823.705 103.424V153.44L834.745 156.32L830.905 164ZM902.416 164H878.416V156.8L869.104 164.288C867.376 164.8 865.296 165.056 862.864 165.056C857.616 165.056 853.456 163.744 850.384 161.12C847.312 158.432 845.776 154.816 845.776 150.272V131.168L837.232 126.272V119.456L857.488 110.912H864.976V141.632C864.976 144.384 865.36 146.336 866.128 147.488C866.96 148.64 868.368 149.216 870.352 149.216C873.104 149.216 875.792 148.544 878.416 147.2V131.168L869.872 126.272V119.456L890.128 110.912H897.616V153.632L906.256 156.32L902.416 164ZM951.421 110.816C955.645 110.816 959.421 111.936 962.749 114.176C966.141 116.352 968.765 119.392 970.621 123.296C972.541 127.136 973.501 131.424 973.501 136.16C973.501 141.28 971.805 146.048 968.413 150.464C965.021 154.88 960.765 158.4 955.645 161.024C950.525 163.584 945.565 164.864 940.765 164.864C935.773 164.864 931.485 163.136 927.901 159.68L923.293 164H915.805V101.12L907.261 95.552V88.736L927.517 80.192H935.005V119.264L944.413 111.68C946.461 111.168 948.797 110.912 951.421 110.912V110.816ZM946.237 152C950.909 152 953.245 148.224 953.245 140.672C953.245 136.192 952.541 132.576 951.133 129.824C949.725 127.008 947.613 125.6 944.797 125.6C941.341 125.6 938.077 126.304 935.005 127.712V142.592C935.005 145.28 935.997 147.52 937.981 149.312C939.965 151.104 942.749 152 946.333 152H946.237Z" fill="black"/>
<path d="M44.544 156.224L40.704 163.904H3.84V157.088L12.864 149.216V99.104L1.92 96.224L5.76 88.544H42.624V95.36L33.504 103.328V153.344L44.544 156.224ZM84.288 163.904H62.112L36.192 126.08L62.88 102.464L51.648 96.128L55.488 88.448H86.112V95.264L56.64 121.28L77.952 151.616L88.128 156.224L84.288 163.904ZM139.17 86.624C143.138 86.624 147.746 87.104 152.994 88.064C158.242 89.024 162.082 90.048 164.514 91.136V112.64H152.226C149.858 108.096 147.074 104.768 143.874 102.656C140.738 100.544 137.314 99.488 133.602 99.488C130.466 99.488 127.586 100.544 124.962 102.656C122.402 104.704 120.354 107.552 118.818 111.2C117.346 114.848 116.61 118.912 116.61 123.392C116.61 128.448 117.378 133.088 118.914 137.312C120.45 141.472 122.786 144.8 125.922 147.296C129.058 149.792 132.93 151.04 137.538 151.04C143.618 151.04 152.194 148.352 163.266 142.976L167.682 150.08L150.018 163.808C146.946 164.704 144.002 165.28 141.186 165.536C138.434 165.792 135.426 165.92 132.162 165.92C124.674 165.92 118.05 164.288 112.29 161.024C106.53 157.76 102.05 153.28 98.85 147.584C95.65 141.824 94.05 135.296 94.05 128C94.05 120.512 96.418 113.6 101.154 107.264C105.954 100.864 111.874 95.84 118.914 92.192C126.018 88.48 132.77 86.624 139.17 86.624ZM243.875 112.736L237.155 115.616L224.579 97.664H204.035V120.896H213.347L220.355 111.008H227.171V140.192L219.491 144.032L212.867 130.016H204.035V152.96L221.795 156.32L217.955 164H174.371V157.184L183.395 150.08V99.2L172.451 96.224L176.291 88.544H235.907L243.875 86.816V112.736ZM319.157 112.736L312.437 115.616L299.861 97.664H279.317V120.896H288.629L295.637 111.008H302.453V140.192L294.773 144.032L288.149 130.016H279.317V152.96L297.077 156.32L293.237 164H249.653V157.184L258.677 150.08V99.2L247.733 96.224L251.573 88.544H311.189L319.157 86.816V112.736Z" fill="#3AA674"/>
</svg>
