<svg width="167" height="206" viewBox="0 0 167 206" fill="none" xmlns="http://www.w3.org/2000/svg">
<path d="M7.424 201V111.656H76.544V132.008H32.64V145.32H60.672V165.16H32.64V201H7.424ZM90.674 201V111.656H159.794V132.008H115.89V145.32H143.922V165.16H115.89V201H90.674Z" fill="#1F1B4E"/>
<path d="M4.48 95V5.656H29.696V20.248L27.264 40.728L40.064 21.528L51.968 5.656H79.744L29.696 70.808V95H4.48ZM53.248 95L29.824 48.024L51.2 37.4L81.664 95H53.248ZM125.746 96.536C117.81 96.536 110.898 94.616 105.01 90.776C99.122 86.936 94.514 81.56 91.186 74.648C87.9433 67.6507 86.322 59.544 86.322 50.328C86.322 40.9413 87.986 32.792 91.314 25.88C94.7273 18.968 99.4633 13.6347 105.522 9.88C111.581 6.04 118.663 4.12 126.77 4.12C133.255 4.12 139.186 5.44266 144.562 8.088C150.023 10.648 154.418 14.4027 157.746 19.352C161.159 24.3013 162.994 30.2747 163.25 37.272H137.394C137.053 33.688 135.943 30.6587 134.066 28.184C132.274 25.7093 129.714 24.472 126.386 24.472C123.485 24.472 120.967 25.4533 118.834 27.416C116.701 29.3787 115.037 32.28 113.842 36.12C112.733 39.8747 112.178 44.6107 112.178 50.328C112.178 56.3013 112.775 61.208 113.97 65.048C115.165 68.8027 116.786 71.576 118.834 73.368C120.882 75.16 123.186 76.056 125.746 76.056C128.05 76.056 130.055 75.544 131.762 74.52C133.469 73.4107 134.834 71.8747 135.858 69.912C136.967 67.864 137.65 65.4747 137.906 62.744H163.762C163.079 69.5707 161.202 75.544 158.13 80.664C155.058 85.6987 150.834 89.624 145.458 92.44C140.082 95.1707 133.511 96.536 125.746 96.536Z" fill="#1F1B4E"/>
</svg>
